# xmcd
# 
# Track frame offsets:
#     150
#     6568
#     22171
#     36844
# 
# Disc length: 697
# 
# Revision: 0
# Processed by: cddbd v1.5.2PL0 Copyright (c) Steve Scherf et al.
# Submitted via: fre:ac v1.0.17
# 
DISCID=2f02b704
DTITLE=Hello Venus 헬로비너스 - 끈적끈적 (1st Single Album)
DYEAR=2014
DGENRE=K-Pop
TTITLE0=HELLOVENUS
TTITLE1=끈적끈적
TTITLE2=위스키 (Whisky)
TTITLE3=끈적끈적 (Instrumental)
EXTD=Windmill Media\nfantagio music\nBugs!
EXTT0=
EXTT1=
EXTT2=
EXTT3=
PLAYORDER=
